<svg width="794" height="1123" viewBox="0 0 794 1123" fill="none" xmlns="http://www.w3.org/2000/svg">
  <!-- A4 Letterhead (794x1123 at 96dpi) -->
  <rect width="794" height="1123" fill="#FDFCF9"/>

  <!-- Top header -->
  <rect x="0" y="0" width="794" height="96" fill="#0E1117"/>

  <!-- Mark in header -->
  <rect x="56" y="24" width="48" height="18" rx="3" fill="#ffffff"/>
  <rect x="56" y="48" width="21" height="24" rx="3" fill="#ffffff" opacity="0.5"/>
  <rect x="83" y="48" width="21" height="24" rx="3" fill="#C9A84C"/>

  <!-- Wordmark in header -->
  <text x="116" y="68" font-family="'Helvetica Neue', Arial, sans-serif" font-size="22" font-weight="700" letter-spacing="-0.3" fill="#ffffff">KOMISSIO</text>

  <!-- Right side of header -->
  <text x="738" y="52" font-family="'Courier New', monospace" font-size="10" fill="rgba(255,255,255,0.35)" text-anchor="end" letter-spacing="1">OPERATING SYSTEM</text>
  <text x="738" y="68" font-family="'Courier New', monospace" font-size="10" fill="rgba(255,255,255,0.35)" text-anchor="end" letter-spacing="1">FOR UAE BUSINESS</text>

  <!-- Gold accent line -->
  <rect x="0" y="96" width="794" height="3" fill="#C9A84C"/>

  <!-- Date and ref line -->
  <text x="56" y="148" font-family="'Helvetica Neue', Arial, sans-serif" font-size="11" fill="#6B6B72">Date: ___________</text>
  <text x="738" y="148" font-family="'Helvetica Neue', Arial, sans-serif" font-size="11" fill="#6B6B72" text-anchor="end">Ref: KOMISSIO-2024-___</text>

  <!-- Body area lines -->
  <line x1="56" y1="180" x2="738" y2="180" stroke="rgba(19,21,26,0.06)" stroke-width="1"/>
  <line x1="56" y1="216" x2="738" y2="216" stroke="rgba(19,21,26,0.06)" stroke-width="1"/>
  <line x1="56" y1="252" x2="738" y2="252" stroke="rgba(19,21,26,0.06)" stroke-width="1"/>
  <line x1="56" y1="288" x2="738" y2="288" stroke="rgba(19,21,26,0.06)" stroke-width="1"/>
  <line x1="56" y1="324" x2="738" y2="324" stroke="rgba(19,21,26,0.06)" stroke-width="1"/>
  <line x1="56" y1="360" x2="738" y2="360" stroke="rgba(19,21,26,0.06)" stroke-width="1"/>
  <line x1="56" y1="396" x2="738" y2="396" stroke="rgba(19,21,26,0.06)" stroke-width="1"/>
  <line x1="56" y1="432" x2="738" y2="432" stroke="rgba(19,21,26,0.06)" stroke-width="1"/>
  <line x1="56" y1="468" x2="738" y2="468" stroke="rgba(19,21,26,0.06)" stroke-width="1"/>
  <line x1="56" y1="504" x2="738" y2="504" stroke="rgba(19,21,26,0.06)" stroke-width="1"/>
  <line x1="56" y1="540" x2="738" y2="540" stroke="rgba(19,21,26,0.06)" stroke-width="1"/>
  <line x1="56" y1="576" x2="738" y2="576" stroke="rgba(19,21,26,0.06)" stroke-width="1"/>
  <line x1="56" y1="612" x2="738" y2="612" stroke="rgba(19,21,26,0.06)" stroke-width="1"/>
  <line x1="56" y1="648" x2="738" y2="648" stroke="rgba(19,21,26,0.06)" stroke-width="1"/>
  <line x1="56" y1="684" x2="738" y2="684" stroke="rgba(19,21,26,0.06)" stroke-width="1"/>
  <line x1="56" y1="720" x2="738" y2="720" stroke="rgba(19,21,26,0.06)" stroke-width="1"/>
  <line x1="56" y1="756" x2="738" y2="756" stroke="rgba(19,21,26,0.06)" stroke-width="1"/>
  <line x1="56" y1="792" x2="738" y2="792" stroke="rgba(19,21,26,0.06)" stroke-width="1"/>
  <line x1="56" y1="828" x2="738" y2="828" stroke="rgba(19,21,26,0.06)" stroke-width="1"/>
  <line x1="56" y1="864" x2="738" y2="864" stroke="rgba(19,21,26,0.06)" stroke-width="1"/>
  <line x1="56" y1="900" x2="738" y2="900" stroke="rgba(19,21,26,0.06)" stroke-width="1"/>

  <!-- Footer -->
  <rect x="0" y="1075" width="794" height="48" fill="#F5F3EF"/>
  <line x1="0" y1="1075" x2="794" y2="1075" stroke="rgba(19,21,26,0.08)" stroke-width="1"/>
  <text x="56" y="1099" font-family="'Courier New', monospace" font-size="9" fill="#6B6B72" letter-spacing="0.5">founders@komissio.ae  ·  komissio.ae  ·  Dubai, United Arab Emirates</text>
  <text x="738" y="1099" font-family="'Helvetica Neue', Arial, sans-serif" font-size="9" fill="#6B6B72" text-anchor="end">Confidential</text>

  <!-- Left margin bar -->
  <rect x="0" y="96" width="4" height="979" fill="#0D5C63" opacity="0.15"/>
</svg>